<?xml version="1.0" encoding="UTF-8" standalone="no"?>
<!DOCTYPE svg PUBLIC "-//W3C//DTD SVG 1.1//EN"
 "http://www.w3.org/Graphics/SVG/1.1/DTD/svg11.dtd">
<!-- Generated by graphviz version 9.0.0 (0)
 -->
<!-- Title: snakemake_dag Pages: 1 -->
<svg width="830pt" height="404pt"
 viewBox="0.00 0.00 830.38 404.00" xmlns="http://www.w3.org/2000/svg" xmlns:xlink="http://www.w3.org/1999/xlink">
<g id="graph0" class="graph" transform="scale(1 1) rotate(0) translate(4 400)">
<title>snakemake_dag</title>
<polygon fill="white" stroke="none" points="-4,4 -4,-400 826.38,-400 826.38,4 -4,4"/>
<!-- 0 -->
<g id="node1" class="node">
<title>0</title>
<path fill="none" stroke="#56b1d8" stroke-width="2" d="M275.75,-36C275.75,-36 210.25,-36 210.25,-36 204.25,-36 198.25,-30 198.25,-24 198.25,-24 198.25,-12 198.25,-12 198.25,-6 204.25,0 210.25,0 210.25,0 275.75,0 275.75,0 281.75,0 287.75,-6 287.75,-12 287.75,-12 287.75,-24 287.75,-24 287.75,-30 281.75,-36 275.75,-36"/>
<text text-anchor="middle" x="243" y="-14.12" font-family="sans" font-size="10.00">FINAL_TARGET</text>
</g>
<!-- 1 -->
<g id="node2" class="node">
<title>1</title>
<path fill="none" stroke="#70d856" stroke-width="2" d="M276.12,-108C276.12,-108 209.88,-108 209.88,-108 203.88,-108 197.88,-102 197.88,-96 197.88,-96 197.88,-84 197.88,-84 197.88,-78 203.88,-72 209.88,-72 209.88,-72 276.12,-72 276.12,-72 282.12,-72 288.12,-78 288.12,-84 288.12,-84 288.12,-96 288.12,-96 288.12,-102 282.12,-108 276.12,-108"/>
<text text-anchor="middle" x="243" y="-86.12" font-family="sans" font-size="10.00">render_bs4_book</text>
</g>
<!-- 1&#45;&gt;0 -->
<g id="edge1" class="edge">
<title>1&#45;&gt;0</title>
<path fill="none" stroke="grey" stroke-width="2" d="M243,-71.34C243,-64.75 243,-57.08 243,-49.67"/>
<polygon fill="grey" stroke="grey" stroke-width="2" points="246.5,-49.93 243,-39.93 239.5,-49.93 246.5,-49.93"/>
</g>
<!-- 2 -->
<g id="node3" class="node">
<title>2</title>
<path fill="none" stroke="#d89c56" stroke-width="2" d="M129.12,-180C129.12,-180 56.88,-180 56.88,-180 50.88,-180 44.88,-174 44.88,-168 44.88,-168 44.88,-156 44.88,-156 44.88,-150 50.88,-144 56.88,-144 56.88,-144 129.12,-144 129.12,-144 135.12,-144 141.12,-150 141.12,-156 141.12,-156 141.12,-168 141.12,-168 141.12,-174 135.12,-180 129.12,-180"/>
<text text-anchor="middle" x="93" y="-158.12" font-family="sans" font-size="10.00">snakemake_report</text>
</g>
<!-- 2&#45;&gt;1 -->
<g id="edge4" class="edge">
<title>2&#45;&gt;1</title>
<path fill="none" stroke="grey" stroke-width="2" d="M131.24,-143.15C149.94,-134.43 172.7,-123.81 192.79,-114.43"/>
<polygon fill="grey" stroke="grey" stroke-width="2" points="194.25,-117.61 201.83,-110.21 191.28,-111.27 194.25,-117.61"/>
</g>
<!-- 3 -->
<g id="node4" class="node">
<title>3</title>
<path fill="none" stroke="#d88556" stroke-width="2" d="M214.5,-180C214.5,-180 171.5,-180 171.5,-180 165.5,-180 159.5,-174 159.5,-168 159.5,-168 159.5,-156 159.5,-156 159.5,-150 165.5,-144 171.5,-144 171.5,-144 214.5,-144 214.5,-144 220.5,-144 226.5,-150 226.5,-156 226.5,-156 226.5,-168 226.5,-168 226.5,-174 220.5,-180 214.5,-180"/>
<text text-anchor="middle" x="193" y="-158.12" font-family="sans" font-size="10.00">project_tree</text>
</g>
<!-- 3&#45;&gt;1 -->
<g id="edge2" class="edge">
<title>3&#45;&gt;1</title>
<path fill="none" stroke="grey" stroke-width="2" d="M205.62,-143.34C210.79,-136.1 216.91,-127.53 222.68,-119.45"/>
<polygon fill="grey" stroke="grey" stroke-width="2" points="225.49,-121.54 228.45,-111.37 219.79,-117.47 225.49,-121.54"/>
</g>
<!-- 4 -->
<g id="node5" class="node">
<title>4</title>
<path fill="none" stroke="#88d856" stroke-width="2" d="M331.25,-180C331.25,-180 256.75,-180 256.75,-180 250.75,-180 244.75,-174 244.75,-168 244.75,-168 244.75,-156 244.75,-156 244.75,-150 250.75,-144 256.75,-144 256.75,-144 331.25,-144 331.25,-144 337.25,-144 343.25,-150 343.25,-156 343.25,-156 343.25,-168 343.25,-168 343.25,-174 337.25,-180 331.25,-180"/>
<text text-anchor="middle" x="294" y="-158.12" font-family="sans" font-size="10.00">generate_rulegraph</text>
</g>
<!-- 4&#45;&gt;1 -->
<g id="edge5" class="edge">
<title>4&#45;&gt;1</title>
<path fill="none" stroke="grey" stroke-width="2" d="M281.13,-143.34C275.8,-136.01 269.47,-127.34 263.53,-119.18"/>
<polygon fill="grey" stroke="grey" stroke-width="2" points="266.54,-117.37 257.83,-111.35 260.89,-121.49 266.54,-117.37"/>
</g>
<!-- 5 -->
<g id="node6" class="node">
<title>5</title>
<path fill="none" stroke="#9fd856" stroke-width="2" d="M454.62,-180C454.62,-180 373.38,-180 373.38,-180 367.38,-180 361.38,-174 361.38,-168 361.38,-168 361.38,-156 361.38,-156 361.38,-150 367.38,-144 373.38,-144 373.38,-144 454.62,-144 454.62,-144 460.62,-144 466.62,-150 466.62,-156 466.62,-156 466.62,-168 466.62,-168 466.62,-174 460.62,-180 454.62,-180"/>
<text text-anchor="middle" x="414" y="-158.12" font-family="sans" font-size="10.00">exploratory_analysis</text>
</g>
<!-- 5&#45;&gt;1 -->
<g id="edge3" class="edge">
<title>5&#45;&gt;1</title>
<path fill="none" stroke="grey" stroke-width="2" d="M370.41,-143.15C348.58,-134.22 321.92,-123.31 298.63,-113.77"/>
<polygon fill="grey" stroke="grey" stroke-width="2" points="300.19,-110.63 289.61,-110.08 297.54,-117.11 300.19,-110.63"/>
</g>
<!-- 6 -->
<g id="node7" class="node">
<title>6</title>
<path fill="none" stroke="#56d8c9" stroke-width="2" d="M359.5,-252C359.5,-252 256.5,-252 256.5,-252 250.5,-252 244.5,-246 244.5,-240 244.5,-240 244.5,-228 244.5,-228 244.5,-222 250.5,-216 256.5,-216 256.5,-216 359.5,-216 359.5,-216 365.5,-216 371.5,-222 371.5,-228 371.5,-228 371.5,-240 371.5,-240 371.5,-246 365.5,-252 359.5,-252"/>
<text text-anchor="middle" x="308" y="-230.12" font-family="sans" font-size="10.00">mothur_phyloseq_objects</text>
</g>
<!-- 6&#45;&gt;5 -->
<g id="edge6" class="edge">
<title>6&#45;&gt;5</title>
<path fill="none" stroke="grey" stroke-width="2" d="M335.02,-215.15C347.61,-206.84 362.79,-196.82 376.46,-187.79"/>
<polygon fill="grey" stroke="grey" stroke-width="2" points="378.08,-190.91 384.5,-182.48 374.23,-185.07 378.08,-190.91"/>
</g>
<!-- 7 -->
<g id="node8" class="node">
<title>7</title>
<path fill="none" stroke="#d85656" stroke-width="2" d="M117.38,-324C117.38,-324 28.62,-324 28.62,-324 22.62,-324 16.62,-318 16.62,-312 16.62,-312 16.62,-300 16.62,-300 16.62,-294 22.62,-288 28.62,-288 28.62,-288 117.38,-288 117.38,-288 123.38,-288 129.38,-294 129.38,-300 129.38,-300 129.38,-312 129.38,-312 129.38,-318 123.38,-324 117.38,-324"/>
<text text-anchor="middle" x="73" y="-302.12" font-family="sans" font-size="10.00">mothur_tidy_metadata</text>
</g>
<!-- 7&#45;&gt;6 -->
<g id="edge9" class="edge">
<title>7&#45;&gt;6</title>
<path fill="none" stroke="grey" stroke-width="2" d="M130.19,-287.97C161.89,-278.52 201.63,-266.69 235.49,-256.6"/>
<polygon fill="grey" stroke="grey" stroke-width="2" points="236.19,-260.04 244.78,-253.83 234.19,-253.33 236.19,-260.04"/>
</g>
<!-- 8 -->
<g id="node9" class="node">
<title>8</title>
<path fill="none" stroke="#d8cb56" stroke-width="2" d="M112,-396C112,-396 12,-396 12,-396 6,-396 0,-390 0,-384 0,-384 0,-372 0,-372 0,-366 6,-360 12,-360 12,-360 112,-360 112,-360 118,-360 124,-366 124,-372 124,-372 124,-384 124,-384 124,-390 118,-396 112,-396"/>
<text text-anchor="middle" x="62" y="-374.12" font-family="sans" font-size="10.00">import_mothur_metadata</text>
</g>
<!-- 8&#45;&gt;7 -->
<g id="edge11" class="edge">
<title>8&#45;&gt;7</title>
<path fill="none" stroke="grey" stroke-width="2" d="M64.78,-359.34C65.81,-352.75 67.02,-345.08 68.18,-337.67"/>
<polygon fill="grey" stroke="grey" stroke-width="2" points="71.62,-338.31 69.72,-327.89 64.71,-337.23 71.62,-338.31"/>
</g>
<!-- 9 -->
<g id="node10" class="node">
<title>9</title>
<path fill="none" stroke="#56d882" stroke-width="2" d="M247.38,-324C247.38,-324 164.62,-324 164.62,-324 158.62,-324 152.62,-318 152.62,-312 152.62,-312 152.62,-300 152.62,-300 152.62,-294 158.62,-288 164.62,-288 164.62,-288 247.38,-288 247.38,-288 253.38,-288 259.38,-294 259.38,-300 259.38,-300 259.38,-312 259.38,-312 259.38,-318 253.38,-324 247.38,-324"/>
<text text-anchor="middle" x="206" y="-302.12" font-family="sans" font-size="10.00">mothur_tidy_otutable</text>
</g>
<!-- 9&#45;&gt;6 -->
<g id="edge8" class="edge">
<title>9&#45;&gt;6</title>
<path fill="none" stroke="grey" stroke-width="2" d="M232,-287.15C243.99,-278.93 258.43,-269.02 271.49,-260.06"/>
<polygon fill="grey" stroke="grey" stroke-width="2" points="273.28,-263.07 279.55,-254.53 269.32,-257.3 273.28,-263.07"/>
</g>
<!-- 10 -->
<g id="node11" class="node">
<title>10</title>
<path fill="none" stroke="#5682d8" stroke-width="2" d="M248,-396C248,-396 154,-396 154,-396 148,-396 142,-390 142,-384 142,-384 142,-372 142,-372 142,-366 148,-360 154,-360 154,-360 248,-360 248,-360 254,-360 260,-366 260,-372 260,-372 260,-384 260,-384 260,-390 254,-396 248,-396"/>
<text text-anchor="middle" x="201" y="-374.12" font-family="sans" font-size="10.00">import_mothur_otutable</text>
</g>
<!-- 10&#45;&gt;9 -->
<g id="edge12" class="edge">
<title>10&#45;&gt;9</title>
<path fill="none" stroke="grey" stroke-width="2" d="M202.26,-359.34C202.73,-352.75 203.28,-345.08 203.81,-337.67"/>
<polygon fill="grey" stroke="grey" stroke-width="2" points="207.28,-338.15 204.51,-327.92 200.3,-337.65 207.28,-338.15"/>
</g>
<!-- 11 -->
<g id="node12" class="node">
<title>11</title>
<path fill="none" stroke="#569ad8" stroke-width="2" d="M385.5,-324C385.5,-324 294.5,-324 294.5,-324 288.5,-324 282.5,-318 282.5,-312 282.5,-312 282.5,-300 282.5,-300 282.5,-294 288.5,-288 294.5,-288 294.5,-288 385.5,-288 385.5,-288 391.5,-288 397.5,-294 397.5,-300 397.5,-300 397.5,-312 397.5,-312 397.5,-318 391.5,-324 385.5,-324"/>
<text text-anchor="middle" x="340" y="-302.12" font-family="sans" font-size="10.00">mothur_tidy_taxonomy</text>
</g>
<!-- 11&#45;&gt;6 -->
<g id="edge10" class="edge">
<title>11&#45;&gt;6</title>
<path fill="none" stroke="grey" stroke-width="2" d="M331.93,-287.34C328.77,-280.43 325.06,-272.31 321.51,-264.56"/>
<polygon fill="grey" stroke="grey" stroke-width="2" points="324.78,-263.29 317.44,-255.65 318.42,-266.2 324.78,-263.29"/>
</g>
<!-- 12 -->
<g id="node13" class="node">
<title>12</title>
<path fill="none" stroke="#59d856" stroke-width="2" d="M392.12,-396C392.12,-396 289.88,-396 289.88,-396 283.88,-396 277.88,-390 277.88,-384 277.88,-384 277.88,-372 277.88,-372 277.88,-366 283.88,-360 289.88,-360 289.88,-360 392.12,-360 392.12,-360 398.12,-360 404.12,-366 404.12,-372 404.12,-372 404.12,-384 404.12,-384 404.12,-390 398.12,-396 392.12,-396"/>
<text text-anchor="middle" x="341" y="-374.12" font-family="sans" font-size="10.00">import_mothur_taxonomy</text>
</g>
<!-- 12&#45;&gt;11 -->
<g id="edge13" class="edge">
<title>12&#45;&gt;11</title>
<path fill="none" stroke="grey" stroke-width="2" d="M340.75,-359.34C340.65,-352.75 340.54,-345.08 340.44,-337.67"/>
<polygon fill="grey" stroke="grey" stroke-width="2" points="343.94,-337.88 340.3,-327.93 336.94,-337.98 343.94,-337.88"/>
</g>
<!-- 13 -->
<g id="node14" class="node">
<title>13</title>
<path fill="none" stroke="#566bd8" stroke-width="2" d="M571.75,-252C571.75,-252 470.25,-252 470.25,-252 464.25,-252 458.25,-246 458.25,-240 458.25,-240 458.25,-228 458.25,-228 458.25,-222 464.25,-216 470.25,-216 470.25,-216 571.75,-216 571.75,-216 577.75,-216 583.75,-222 583.75,-228 583.75,-228 583.75,-240 583.75,-240 583.75,-246 577.75,-252 571.75,-252"/>
<text text-anchor="middle" x="521" y="-230.12" font-family="sans" font-size="10.00">qiime2_phyloseq_objects</text>
</g>
<!-- 13&#45;&gt;5 -->
<g id="edge7" class="edge">
<title>13&#45;&gt;5</title>
<path fill="none" stroke="grey" stroke-width="2" d="M493.72,-215.15C481.02,-206.84 465.7,-196.82 451.89,-187.79"/>
<polygon fill="grey" stroke="grey" stroke-width="2" points="454.05,-185.02 443.76,-182.47 450.21,-190.87 454.05,-185.02"/>
</g>
<!-- 14 -->
<g id="node15" class="node">
<title>14</title>
<path fill="none" stroke="#56d8b1" stroke-width="2" d="M529.62,-324C529.62,-324 442.38,-324 442.38,-324 436.38,-324 430.38,-318 430.38,-312 430.38,-312 430.38,-300 430.38,-300 430.38,-294 436.38,-288 442.38,-288 442.38,-288 529.62,-288 529.62,-288 535.62,-288 541.62,-294 541.62,-300 541.62,-300 541.62,-312 541.62,-312 541.62,-318 535.62,-324 529.62,-324"/>
<text text-anchor="middle" x="486" y="-302.12" font-family="sans" font-size="10.00">qiime2_tidy_metadata</text>
</g>
<!-- 14&#45;&gt;13 -->
<g id="edge15" class="edge">
<title>14&#45;&gt;13</title>
<path fill="none" stroke="grey" stroke-width="2" d="M494.83,-287.34C498.33,-280.34 502.44,-272.12 506.36,-264.28"/>
<polygon fill="grey" stroke="grey" stroke-width="2" points="509.35,-266.12 510.7,-255.61 503.09,-262.99 509.35,-266.12"/>
</g>
<!-- 15 -->
<g id="node16" class="node">
<title>15</title>
<path fill="none" stroke="#b6d856" stroke-width="2" d="M532.25,-396C532.25,-396 433.75,-396 433.75,-396 427.75,-396 421.75,-390 421.75,-384 421.75,-384 421.75,-372 421.75,-372 421.75,-366 427.75,-360 433.75,-360 433.75,-360 532.25,-360 532.25,-360 538.25,-360 544.25,-366 544.25,-372 544.25,-372 544.25,-384 544.25,-384 544.25,-390 538.25,-396 532.25,-396"/>
<text text-anchor="middle" x="483" y="-374.12" font-family="sans" font-size="10.00">import_qiime2_metadata</text>
</g>
<!-- 15&#45;&gt;14 -->
<g id="edge17" class="edge">
<title>15&#45;&gt;14</title>
<path fill="none" stroke="grey" stroke-width="2" d="M483.76,-359.34C484.04,-352.75 484.37,-345.08 484.69,-337.67"/>
<polygon fill="grey" stroke="grey" stroke-width="2" points="488.17,-338.07 485.1,-327.93 481.18,-337.77 488.17,-338.07"/>
</g>
<!-- 16 -->
<g id="node17" class="node">
<title>16</title>
<path fill="none" stroke="#56c9d8" stroke-width="2" d="M659,-324C659,-324 577,-324 577,-324 571,-324 565,-318 565,-312 565,-312 565,-300 565,-300 565,-294 571,-288 577,-288 577,-288 659,-288 659,-288 665,-288 671,-294 671,-300 671,-300 671,-312 671,-312 671,-318 665,-324 659,-324"/>
<text text-anchor="middle" x="618" y="-302.12" font-family="sans" font-size="10.00">qiime2_tidy_features</text>
</g>
<!-- 16&#45;&gt;13 -->
<g id="edge16" class="edge">
<title>16&#45;&gt;13</title>
<path fill="none" stroke="grey" stroke-width="2" d="M593.27,-287.15C581.98,-279.01 568.41,-269.22 556.1,-260.33"/>
<polygon fill="grey" stroke="grey" stroke-width="2" points="558.29,-257.6 548.14,-254.58 554.2,-263.27 558.29,-257.6"/>
</g>
<!-- 17 -->
<g id="node18" class="node">
<title>17</title>
<path fill="none" stroke="#ced856" stroke-width="2" d="M667.62,-396C667.62,-396 574.38,-396 574.38,-396 568.38,-396 562.38,-390 562.38,-384 562.38,-384 562.38,-372 562.38,-372 562.38,-366 568.38,-360 574.38,-360 574.38,-360 667.62,-360 667.62,-360 673.62,-360 679.62,-366 679.62,-372 679.62,-372 679.62,-384 679.62,-384 679.62,-390 673.62,-396 667.62,-396"/>
<text text-anchor="middle" x="621" y="-374.12" font-family="sans" font-size="10.00">import_qiime2_features</text>
</g>
<!-- 17&#45;&gt;16 -->
<g id="edge18" class="edge">
<title>17&#45;&gt;16</title>
<path fill="none" stroke="grey" stroke-width="2" d="M620.24,-359.34C619.96,-352.75 619.63,-345.08 619.31,-337.67"/>
<polygon fill="grey" stroke="grey" stroke-width="2" points="622.82,-337.77 618.9,-327.93 615.83,-338.07 622.82,-337.77"/>
</g>
<!-- 18 -->
<g id="node19" class="node">
<title>18</title>
<path fill="none" stroke="#d86e56" stroke-width="2" d="M798.75,-324C798.75,-324 709.25,-324 709.25,-324 703.25,-324 697.25,-318 697.25,-312 697.25,-312 697.25,-300 697.25,-300 697.25,-294 703.25,-288 709.25,-288 709.25,-288 798.75,-288 798.75,-288 804.75,-288 810.75,-294 810.75,-300 810.75,-300 810.75,-312 810.75,-312 810.75,-318 804.75,-324 798.75,-324"/>
<text text-anchor="middle" x="754" y="-302.12" font-family="sans" font-size="10.00">qiime2_tidy_taxonomy</text>
</g>
<!-- 18&#45;&gt;13 -->
<g id="edge14" class="edge">
<title>18&#45;&gt;13</title>
<path fill="none" stroke="grey" stroke-width="2" d="M696.4,-287.7C665.22,-278.33 626.38,-266.66 593.19,-256.69"/>
<polygon fill="grey" stroke="grey" stroke-width="2" points="594.26,-253.35 583.67,-253.83 592.24,-260.06 594.26,-253.35"/>
</g>
<!-- 19 -->
<g id="node20" class="node">
<title>19</title>
<path fill="none" stroke="#d8b456" stroke-width="2" d="M810.38,-396C810.38,-396 709.62,-396 709.62,-396 703.62,-396 697.62,-390 697.62,-384 697.62,-384 697.62,-372 697.62,-372 697.62,-366 703.62,-360 709.62,-360 709.62,-360 810.38,-360 810.38,-360 816.38,-360 822.38,-366 822.38,-372 822.38,-372 822.38,-384 822.38,-384 822.38,-390 816.38,-396 810.38,-396"/>
<text text-anchor="middle" x="760" y="-374.12" font-family="sans" font-size="10.00">import_qiime2_taxonomy</text>
</g>
<!-- 19&#45;&gt;18 -->
<g id="edge19" class="edge">
<title>19&#45;&gt;18</title>
<path fill="none" stroke="grey" stroke-width="2" d="M758.49,-359.34C757.92,-352.75 757.26,-345.08 756.63,-337.67"/>
<polygon fill="grey" stroke="grey" stroke-width="2" points="760.13,-337.58 755.79,-327.92 753.16,-338.18 760.13,-337.58"/>
</g>
</g>
</svg>
