<?xml version="1.0" encoding="UTF-8" standalone="no"?>
<!DOCTYPE svg PUBLIC "-//W3C//DTD SVG 1.1//EN"
 "http://www.w3.org/Graphics/SVG/1.1/DTD/svg11.dtd">
<!-- Generated by graphviz version 9.0.0 (0)
 -->
<!-- Title: snakemake_dag Pages: 1 -->
<svg width="314pt" height="188pt"
 viewBox="0.00 0.00 314.38 188.00" xmlns="http://www.w3.org/2000/svg" xmlns:xlink="http://www.w3.org/1999/xlink">
<g id="graph0" class="graph" transform="scale(1 1) rotate(0) translate(4 184)">
<title>snakemake_dag</title>
<polygon fill="white" stroke="none" points="-4,4 -4,-184 310.38,-184 310.38,4 -4,4"/>
<!-- 0 -->
<g id="node1" class="node">
<title>0</title>
<path fill="none" stroke="#56d88a" stroke-width="2" d="M184.88,-36C184.88,-36 119.38,-36 119.38,-36 113.38,-36 107.38,-30 107.38,-24 107.38,-24 107.38,-12 107.38,-12 107.38,-6 113.38,0 119.38,0 119.38,0 184.88,0 184.88,0 190.88,0 196.88,-6 196.88,-12 196.88,-12 196.88,-24 196.88,-24 196.88,-30 190.88,-36 184.88,-36"/>
<text text-anchor="middle" x="152.12" y="-14.12" font-family="sans" font-size="10.00">FINAL_TARGET</text>
</g>
<!-- 1 -->
<g id="node2" class="node">
<title>1</title>
<path fill="none" stroke="#56c1d8" stroke-width="2" d="M185.25,-108C185.25,-108 119,-108 119,-108 113,-108 107,-102 107,-96 107,-96 107,-84 107,-84 107,-78 113,-72 119,-72 119,-72 185.25,-72 185.25,-72 191.25,-72 197.25,-78 197.25,-84 197.25,-84 197.25,-96 197.25,-96 197.25,-102 191.25,-108 185.25,-108"/>
<text text-anchor="middle" x="152.12" y="-86.12" font-family="sans" font-size="10.00">render_bs4_book</text>
</g>
<!-- 1&#45;&gt;0 -->
<g id="edge1" class="edge">
<title>1&#45;&gt;0</title>
<path fill="none" stroke="grey" stroke-width="2" d="M152.12,-71.34C152.12,-64.75 152.12,-57.08 152.12,-49.67"/>
<polygon fill="grey" stroke="grey" stroke-width="2" points="155.63,-49.93 152.13,-39.93 148.63,-49.93 155.63,-49.93"/>
</g>
<!-- 2 -->
<g id="node3" class="node">
<title>2</title>
<path fill="none" stroke="#d85656" stroke-width="2" d="M84.25,-180C84.25,-180 12,-180 12,-180 6,-180 0,-174 0,-168 0,-168 0,-156 0,-156 0,-150 6,-144 12,-144 12,-144 84.25,-144 84.25,-144 90.25,-144 96.25,-150 96.25,-156 96.25,-156 96.25,-168 96.25,-168 96.25,-174 90.25,-180 84.25,-180"/>
<text text-anchor="middle" x="48.12" y="-158.12" font-family="sans" font-size="10.00">snakemake_report</text>
</g>
<!-- 2&#45;&gt;1 -->
<g id="edge2" class="edge">
<title>2&#45;&gt;1</title>
<path fill="none" stroke="grey" stroke-width="2" d="M74.64,-143.15C86.86,-134.93 101.58,-125.02 114.9,-116.06"/>
<polygon fill="grey" stroke="grey" stroke-width="2" points="116.81,-118.99 123.15,-110.5 112.9,-113.18 116.81,-118.99"/>
</g>
<!-- 3 -->
<g id="node4" class="node">
<title>3</title>
<path fill="none" stroke="#88d856" stroke-width="2" d="M177.75,-180C177.75,-180 126.5,-180 126.5,-180 120.5,-180 114.5,-174 114.5,-168 114.5,-168 114.5,-156 114.5,-156 114.5,-150 120.5,-144 126.5,-144 126.5,-144 177.75,-144 177.75,-144 183.75,-144 189.75,-150 189.75,-156 189.75,-156 189.75,-168 189.75,-168 189.75,-174 183.75,-180 177.75,-180"/>
<text text-anchor="middle" x="152.12" y="-158.12" font-family="sans" font-size="10.00">generate_tree</text>
</g>
<!-- 3&#45;&gt;1 -->
<g id="edge4" class="edge">
<title>3&#45;&gt;1</title>
<path fill="none" stroke="grey" stroke-width="2" d="M152.12,-143.34C152.12,-136.75 152.12,-129.08 152.12,-121.67"/>
<polygon fill="grey" stroke="grey" stroke-width="2" points="155.63,-121.93 152.13,-111.93 148.63,-121.93 155.63,-121.93"/>
</g>
<!-- 4 -->
<g id="node5" class="node">
<title>4</title>
<path fill="none" stroke="#d8bc56" stroke-width="2" d="M294.38,-180C294.38,-180 219.88,-180 219.88,-180 213.88,-180 207.88,-174 207.88,-168 207.88,-168 207.88,-156 207.88,-156 207.88,-150 213.88,-144 219.88,-144 219.88,-144 294.38,-144 294.38,-144 300.38,-144 306.38,-150 306.38,-156 306.38,-156 306.38,-168 306.38,-168 306.38,-174 300.38,-180 294.38,-180"/>
<text text-anchor="middle" x="257.12" y="-158.12" font-family="sans" font-size="10.00">generate_rulegraph</text>
</g>
<!-- 4&#45;&gt;1 -->
<g id="edge3" class="edge">
<title>4&#45;&gt;1</title>
<path fill="none" stroke="grey" stroke-width="2" d="M230.36,-143.15C217.89,-134.84 202.86,-124.82 189.31,-115.79"/>
<polygon fill="grey" stroke="grey" stroke-width="2" points="191.62,-113.13 181.36,-110.49 187.74,-118.95 191.62,-113.13"/>
</g>
</g>
</svg>
